<svg width="142" height="141" viewBox="0 0 142 141" fill="none" xmlns="http://www.w3.org/2000/svg">
<path fill-rule="evenodd" clip-rule="evenodd" d="M80.5839 136.373C112.765 136.373 138.852 110.285 138.852 78.1043C138.852 45.9236 112.765 19.836 80.5839 19.836C48.4032 19.836 22.3155 45.9236 22.3155 78.1043C22.3155 110.285 48.4032 136.373 80.5839 136.373ZM80.5839 139.472C114.476 139.472 141.952 111.997 141.952 78.1043C141.952 44.2118 114.476 16.7366 80.5839 16.7366C46.6914 16.7366 19.2162 44.2118 19.2162 78.1043C19.2162 111.997 46.6914 139.472 80.5839 139.472Z" fill="#263238" fill-opacity="0.7"/>
<circle cx="80.5839" cy="78.1044" r="29.754" fill="#263238"/>
<path d="M88.3319 106.84L75.3149 93.2914L99.4901 68.4963L110.338 78.1161C110.333 91.8635 101.004 103.431 88.3319 106.84Z" fill="#161E22"/>
<path d="M98.8034 71.7418C99.9749 70.5702 99.9749 68.6707 98.8033 67.4992L95.5942 64.2902C94.4226 63.1186 92.5232 63.1186 91.3516 64.2902L75.9675 79.6741L69.0812 72.7873C67.9096 71.6157 66.0101 71.6156 64.8385 72.7872L61.6295 75.9961C60.4579 77.1677 60.4578 79.0672 61.6295 80.2388L73.9163 92.5254C75.0987 93.7078 77.0196 93.6952 78.1865 92.4974L83.4193 87.1259L98.8034 71.7418Z" fill="white"/>
<circle cx="125.215" cy="12.3975" r="3.09938" fill="#263238" fill-opacity="0.7"/>
<circle cx="8.9882" cy="23.8654" r="2.16957" fill="#263238" fill-opacity="0.7"/>
<circle cx="49.9" cy="56.0988" r="2.16957" fill="#263238" fill-opacity="0.7"/>
<circle cx="8.13322" cy="45.3262" r="0.929814" transform="rotate(45 8.13322 45.3262)" fill="#263238" fill-opacity="0.7"/>
<circle cx="10.3246" cy="47.5178" r="0.929814" transform="rotate(45 10.3246 47.5178)" fill="#263238" fill-opacity="0.7"/>
<circle cx="12.5172" cy="49.7092" r="0.929814" transform="rotate(45 12.5172 49.7092)" fill="#263238" fill-opacity="0.7"/>
<circle cx="14.7085" cy="51.9011" r="0.929814" transform="rotate(45 14.7085 51.9011)" fill="#263238" fill-opacity="0.7"/>
<circle cx="16.8999" cy="54.0925" r="0.929814" transform="rotate(45 16.8999 54.0925)" fill="#263238" fill-opacity="0.7"/>
<circle cx="19.0912" cy="56.2842" r="0.929814" transform="rotate(45 19.0912 56.2842)" fill="#263238" fill-opacity="0.7"/>
<circle cx="21.2826" cy="58.4758" r="0.929814" transform="rotate(45 21.2826 58.4758)" fill="#263238" fill-opacity="0.7"/>
<circle cx="23.4739" cy="60.6675" r="0.929814" transform="rotate(45 23.4739 60.6675)" fill="#263238" fill-opacity="0.7"/>
<circle cx="25.6665" cy="62.8587" r="0.929814" transform="rotate(45 25.6665 62.8587)" fill="#263238" fill-opacity="0.7"/>
<circle cx="27.8579" cy="65.0506" r="0.929814" transform="rotate(45 27.8579 65.0506)" fill="#263238" fill-opacity="0.7"/>
<circle cx="30.0492" cy="67.242" r="0.929814" transform="rotate(45 30.0492 67.242)" fill="#263238" fill-opacity="0.7"/>
<circle cx="114.132" cy="111.653" r="0.929814" transform="rotate(45 114.132 111.653)" fill="#263238" fill-opacity="0.7"/>
<circle cx="116.324" cy="113.844" r="0.929814" transform="rotate(45 116.324 113.844)" fill="#263238" fill-opacity="0.7"/>
<circle cx="118.516" cy="116.036" r="0.929814" transform="rotate(45 118.516 116.036)" fill="#263238" fill-opacity="0.7"/>
<circle cx="120.708" cy="118.228" r="0.929814" transform="rotate(45 120.708 118.228)" fill="#263238" fill-opacity="0.7"/>
<circle cx="122.899" cy="120.419" r="0.929814" transform="rotate(45 122.899 120.419)" fill="#263238" fill-opacity="0.7"/>
<circle cx="125.09" cy="122.611" r="0.929814" transform="rotate(45 125.09 122.611)" fill="#263238" fill-opacity="0.7"/>
<circle cx="127.282" cy="124.803" r="0.929814" transform="rotate(45 127.282 124.803)" fill="#263238" fill-opacity="0.7"/>
<circle cx="129.473" cy="126.994" r="0.929814" transform="rotate(45 129.473 126.994)" fill="#263238" fill-opacity="0.7"/>
<circle cx="131.666" cy="129.185" r="0.929814" transform="rotate(45 131.666 129.185)" fill="#263238" fill-opacity="0.7"/>
<circle cx="6.19876" cy="69.4261" r="6.19876" fill="#263238" fill-opacity="0.7"/>
<path fill-rule="evenodd" clip-rule="evenodd" d="M78.6771 16.714L77.7501 16.642C77.7795 16.2643 77.7944 15.8824 77.7944 15.4969C77.7944 15.1114 77.7795 14.7295 77.7501 14.3518L78.6771 14.2798C78.7083 14.6814 78.7242 15.0873 78.7242 15.4969C78.7242 15.9065 78.7083 16.3124 78.6771 16.714ZM78.2993 11.8777L77.395 12.094C77.216 11.3456 76.9791 10.6196 76.6894 9.92104L77.5483 9.56487C77.8566 10.3084 78.1087 11.0811 78.2993 11.8777ZM76.4426 7.39885L75.6503 7.88541C75.25 7.23354 74.7997 6.61547 74.3048 6.03655L75.0116 5.43235C75.5379 6.048 76.0168 6.70538 76.4426 7.39885ZM73.2919 3.71268C72.6762 3.18637 72.0189 2.70747 71.3254 2.28162L70.8388 3.07396C71.4907 3.47427 72.1088 3.92453 72.6877 4.41943L73.2919 3.71268ZM69.1594 1.17591L68.8032 2.03481C68.1046 1.74512 67.3787 1.50827 66.6302 1.3292L66.8466 0.424909C67.6432 0.615497 68.4159 0.867598 69.1594 1.17591ZM64.4444 0.0470893L64.3724 0.97411C63.9947 0.944771 63.6129 0.929814 63.2273 0.929814C62.8418 0.929814 62.4599 0.944771 62.0823 0.97411L62.0103 0.0470894C62.4119 0.0158908 62.8177 0 63.2273 0C63.6369 0 64.0428 0.0158907 64.4444 0.0470893ZM59.6081 0.424908L59.8244 1.3292C59.076 1.50827 58.3501 1.74512 57.6515 2.03481L57.2953 1.17591C58.0388 0.867598 58.8115 0.615496 59.6081 0.424908ZM55.1293 2.28162L55.6159 3.07396C54.964 3.47427 54.3459 3.92452 53.767 4.41943L53.1628 3.71268C53.7784 3.18637 54.4358 2.70747 55.1293 2.28162ZM51.4431 5.43235L52.1499 6.03655C51.655 6.61547 51.2047 7.23354 50.8044 7.88541L50.0121 7.39884C50.4379 6.70538 50.9168 6.048 51.4431 5.43235ZM48.9064 9.56487L49.7652 9.92104C49.4756 10.6196 49.2387 11.3456 49.0596 12.094L48.1553 11.8777C48.3459 11.0811 48.598 10.3084 48.9064 9.56487ZM47.7775 14.2798C47.7463 14.6814 47.7304 15.0873 47.7304 15.4969C47.7304 15.9065 47.7463 16.3124 47.7775 16.714L48.7045 16.642C48.6752 16.2643 48.6603 15.8824 48.6603 15.4969C48.6603 15.1114 48.6752 14.7295 48.7045 14.3518L47.7775 14.2798ZM48.1553 19.1161L49.0596 18.8998C49.2387 19.6482 49.4756 20.3742 49.7652 21.0728L48.9064 21.4289C48.598 20.6854 48.3459 19.9127 48.1553 19.1161ZM50.0121 23.5949L50.8044 23.1084C51.2047 23.7603 51.655 24.3783 52.1499 24.9572L51.4431 25.5614C50.9168 24.9458 50.4379 24.2884 50.0121 23.5949ZM53.1628 27.2811L53.767 26.5744C54.3459 27.0693 54.964 27.5195 55.6158 27.9198L55.1293 28.7122C54.4358 28.2863 53.7784 27.8074 53.1628 27.2811ZM57.2953 29.8179L57.6515 28.959C58.3501 29.2487 59.076 29.4855 59.8244 29.6646L59.6081 30.5689C58.8115 30.3783 58.0388 30.1262 57.2953 29.8179ZM62.0103 30.9467L62.0823 30.0197C62.4599 30.049 62.8418 30.064 63.2273 30.064C63.6129 30.064 63.9947 30.049 64.3724 30.0197L64.4444 30.9467C64.0428 30.9779 63.6369 30.9938 63.2273 30.9938C62.8177 30.9938 62.4119 30.9779 62.0103 30.9467ZM66.8466 30.5689L66.6302 29.6646C67.3787 29.4855 68.1046 29.2487 68.8032 28.959L69.1594 29.8179C68.4159 30.1262 67.6432 30.3783 66.8466 30.5689ZM71.3254 28.7122L70.8388 27.9198C71.4907 27.5195 72.1088 27.0693 72.6877 26.5744L73.2919 27.2811C72.6762 27.8074 72.0189 28.2863 71.3254 28.7122ZM75.0116 25.5614L74.3048 24.9572C74.7997 24.3783 75.25 23.7603 75.6503 23.1084L76.4426 23.5949C76.0168 24.2884 75.5379 24.9458 75.0116 25.5614ZM77.5483 21.4289L76.6894 21.0728C76.9791 20.3742 77.216 19.6482 77.395 18.8998L78.2993 19.1161C78.1087 19.9127 77.8566 20.6854 77.5483 21.4289Z" fill="#263238" fill-opacity="0.7"/>
<path fill-rule="evenodd" clip-rule="evenodd" d="M135.094 116.514L134.166 116.454C134.191 116.072 134.203 115.686 134.203 115.297C134.203 114.908 134.191 114.522 134.166 114.139L135.094 114.079C135.12 114.482 135.133 114.888 135.133 115.297C135.133 115.706 135.12 116.112 135.094 116.514ZM134.779 111.667C134.62 110.864 134.409 110.079 134.151 109.317L133.27 109.616C133.516 110.34 133.716 111.085 133.867 111.848L134.779 111.667ZM133.219 107.07L132.385 107.482C132.043 106.788 131.656 106.12 131.228 105.482L132.001 104.964C132.451 105.637 132.858 106.34 133.219 107.07ZM130.518 103.035L129.819 103.649C129.311 103.069 128.764 102.523 128.185 102.014L128.798 101.315C129.408 101.85 129.983 102.425 130.518 103.035ZM126.869 99.8327L126.352 100.605C125.713 100.178 125.045 99.7908 124.351 99.4481L124.763 98.6145C125.494 98.9753 126.197 99.3827 126.869 99.8327ZM122.516 97.6827L122.218 98.5632C121.494 98.3175 120.748 98.1175 119.985 97.9665L120.166 97.0544C120.969 97.2133 121.754 97.424 122.516 97.6827ZM117.754 96.7397L117.694 97.6675C117.312 97.6428 116.926 97.6303 116.537 97.6303C116.148 97.6303 115.762 97.6428 115.379 97.6675L115.319 96.7397C115.722 96.7136 116.128 96.7004 116.537 96.7004C116.946 96.7004 117.352 96.7136 117.754 96.7397ZM112.907 97.0544L113.088 97.9665C112.325 98.1175 111.58 98.3175 110.856 98.5632L110.557 97.6827C111.319 97.424 112.104 97.2133 112.907 97.0544ZM108.31 98.6145L108.722 99.4481C108.028 99.7908 107.36 100.178 106.722 100.605L106.204 99.8327C106.876 99.3827 107.58 98.9753 108.31 98.6145ZM104.275 101.315C103.665 101.85 103.09 102.425 102.555 103.035L103.254 103.649C103.763 103.069 104.309 102.523 104.889 102.014L104.275 101.315ZM101.073 104.964L101.845 105.482C101.418 106.12 101.031 106.788 100.688 107.482L99.8544 107.07C100.215 106.34 100.623 105.637 101.073 104.964ZM98.9227 109.317L99.8032 109.616C99.5574 110.34 99.3574 111.085 99.2065 111.848L98.2943 111.667C98.4532 110.864 98.6639 110.079 98.9227 109.317ZM97.9796 114.079C97.9536 114.482 97.9404 114.888 97.9404 115.297C97.9404 115.706 97.9536 116.112 97.9796 116.514L98.9075 116.454C98.8827 116.072 98.8702 115.686 98.8702 115.297C98.8702 114.908 98.8827 114.522 98.9075 114.139L97.9796 114.079ZM98.2943 118.926L99.2065 118.746C99.3574 119.508 99.5574 120.254 99.8032 120.978L98.9227 121.276C98.6639 120.514 98.4532 119.729 98.2943 118.926ZM99.8544 123.523L100.688 123.112C101.031 123.805 101.418 124.473 101.845 125.112L101.073 125.629C100.623 124.957 100.215 124.254 99.8544 123.523ZM102.555 127.558L103.254 126.945C103.763 127.525 104.309 128.071 104.889 128.58L104.275 129.278C103.665 128.743 103.09 128.168 102.555 127.558ZM106.204 130.761L106.722 129.988C107.36 130.416 108.028 130.803 108.722 131.145L108.31 131.979C107.58 131.618 106.876 131.211 106.204 130.761ZM110.557 132.911C111.319 133.169 112.104 133.38 112.907 133.539L113.088 132.627C112.325 132.476 111.58 132.276 110.856 132.03L110.557 132.911ZM115.319 133.854L115.379 132.926C115.762 132.951 116.148 132.963 116.537 132.963C116.926 132.963 117.312 132.951 117.694 132.926L117.754 133.854C117.352 133.88 116.946 133.893 116.537 133.893C116.128 133.893 115.722 133.88 115.319 133.854ZM120.166 133.539L119.985 132.627C120.748 132.476 121.494 132.276 122.218 132.03L122.516 132.911C121.754 133.169 120.969 133.38 120.166 133.539ZM124.763 131.979L124.351 131.145C125.045 130.803 125.713 130.416 126.352 129.988L126.869 130.761C126.197 131.211 125.494 131.618 124.763 131.979ZM128.798 129.278L128.185 128.58C128.764 128.071 129.311 127.525 129.819 126.945L130.518 127.558C129.983 128.168 129.408 128.743 128.798 129.278ZM132.001 125.629L131.228 125.112C131.656 124.473 132.043 123.805 132.385 123.112L133.219 123.523C132.858 124.254 132.451 124.957 132.001 125.629ZM134.151 121.276L133.27 120.978C133.516 120.254 133.716 119.508 133.867 118.746L134.779 118.926C134.62 119.729 134.409 120.514 134.151 121.276Z" fill="#263238" fill-opacity="0.7"/>
<circle cx="105.379" cy="132.653" r="8.05839" fill="#263238" fill-opacity="0.7"/>
<rect x="24.7793" y="27.9087" width="5.03524" height="30.9499" rx="2.51762" transform="rotate(-45 24.7793 27.9087)" fill="#263238" fill-opacity="0.7"/>
<rect x="19.2162" y="50.051" width="5.03524" height="30.9499" rx="2.51762" transform="rotate(-45 19.2162 50.051)" fill="#263238" fill-opacity="0.7"/>
<rect x="16.9025" y="28.1199" width="1.2798" height="14.8269" rx="0.639902" transform="rotate(-45 16.9025 28.1199)" fill="#263238" fill-opacity="0.7"/>
<rect x="29.2976" y="17.8049" width="1.2798" height="11.9607" rx="0.639902" transform="rotate(-45 29.2976 17.8049)" fill="#263238" fill-opacity="0.7"/>
<rect x="32.3195" y="13.8274" width="2.98066" height="11.3502" rx="1.49033" transform="rotate(-45 32.3195 13.8274)" fill="#263238" fill-opacity="0.7"/>
<rect x="29.1342" y="40.5769" width="1.2798" height="14.8269" rx="0.639902" transform="rotate(-45 29.1342 40.5769)" fill="#263238" fill-opacity="0.7"/>
<rect x="114.057" y="121.161" width="1.2798" height="9.85449" rx="0.639902" transform="rotate(-45 114.057 121.161)" fill="#263238" fill-opacity="0.7"/>
<rect x="120.876" y="111.068" width="2.78618" height="11.1593" rx="1.39309" transform="rotate(-45 120.876 111.068)" fill="#263238" fill-opacity="0.7"/>
<rect x="122.735" y="129.839" width="1.2798" height="12.7916" rx="0.639902" transform="rotate(-45 122.735 129.839)" fill="#263238" fill-opacity="0.7"/>
<rect x="39.3149" y="27.8228" width="1.2798" height="15.4214" rx="0.639902" transform="rotate(-45 39.3149 27.8228)" fill="#263238" fill-opacity="0.7"/>
<rect x="31.6136" y="50.4949" width="1.2798" height="25.5392" rx="0.639902" transform="rotate(-45 31.6136 50.4949)" fill="#263238" fill-opacity="0.7"/>
</svg>
